Coordinates
version=1
nRows=16
nColumns=22
inDegrees=yes

Units are S.I. units (second, meters, Newtons, ...)
If the header above contains a line with 'inDegrees', this indicates whether rotational values are in degrees (yes) or radians (no).

endheader
time	pelvis_tilt	pelvis_list	pelvis_rotation	pelvis_tx	pelvis_ty	pelvis_tz	hip_flexion_r	hip_adduction_r	hip_rotation_r	knee_angle_r	ankle_angle_r	subtalar_angle_r	hip_flexion_l	hip_adduction_l	hip_rotation_l	knee_angle_l	ankle_angle_l	subtalar_angle_l	lumbar_extension	lumbar_bending	lumbar_rotation
      4.42000000	      1.09087975	     -6.50657367	     17.15938970	      1.13521152	      0.95422343	     -0.32321758	     20.30293578	      4.08402283	    -11.73445774	    -25.41787083	      2.91141230	      1.39676926	      5.66376142	     -9.49034016	     14.09963998	    -53.80162405	      5.37968062	      9.63215927	     -0.63647127	      6.63237887	     -8.62105693
      4.43000000	      1.11499858	     -6.70770778	     17.04611526	      1.14135354	      0.95472493	     -0.32165785	     19.90019724	      4.56160649	    -11.69736457	    -25.25366120	      3.14923219	      1.21476748	      6.60815950	     -9.73228537	     13.82592141	    -54.52801796	      6.02154632	      8.18430751	     -0.64470396	      6.82531318	     -8.42016891
      4.44000000	      1.13449690	     -6.84862119	     16.92450154	      1.14733352	      0.95527300	     -0.32024836	     19.48373226	      4.97093954	    -11.61654107	    -25.08182551	      3.38246494	      1.05149940	      7.45105895	     -9.85131751	     13.63232156	    -54.98472846	      6.73857795	      6.90578995	     -0.66666923	      6.96315407	     -8.22319969
      4.45000000	      1.14790258	     -6.92702789	     16.79348730	      1.15316152	      0.95586948	     -0.31899404	     19.05352119	      5.30463244	    -11.51292658	    -24.90311438	      3.61606848	      0.90627959	      8.19178365	     -9.84130295	     13.51400493	    -55.17826043	      7.48781465	      5.85669612	     -0.70149785	      7.04238396	     -8.01309317
      4.46000000	      1.14950235	     -6.96048004	     16.65567879	      1.15883946	      0.95649567	     -0.31788042	     18.61466843	      5.58127022	    -11.37906062	    -24.70493018	      3.83764781	      0.78610936	      8.85299363	     -9.72856591	     13.45452281	    -55.13101305	      8.23970993	      5.12429284	     -0.73665474	      7.08089708	     -7.81323041
      4.47000000	      1.14600386	     -6.94107669	     16.51726613	      1.16435568	      0.95713346	     -0.31689613	     18.17568097	      5.78454400	    -11.25624279	    -24.51983518	      4.07367624	      0.67882689	      9.43496126	     -9.51319306	     13.45084837	    -54.86836308	      8.98593330	      4.67224307	     -0.78567095	      7.06905877	     -7.61490545
      4.48000000	      1.12213822	     -6.89353674	     16.40256171	      1.16969735	      0.95775030	     -0.31606152	     17.75685620	      5.92572895	    -11.18002625	    -24.33850882	      4.31140269	      0.61129949	      9.98079039	     -9.22675854	     13.51107407	    -54.41769094	      9.72584154	      4.51366826	     -0.81858255	      7.03079976	     -7.46042646
      4.49000000	      1.07483126	     -6.84775316	     16.30882051	      1.17485169	      0.95833184	     -0.31529096	     17.35621455	      6.05952953	    -11.07069145	    -24.12604713	      4.51080495	      0.56155397	     10.51778977	     -8.91599017	     13.62209073	    -53.81003282	     10.40728543	      4.44459577	     -0.82981777	      6.98720563	     -7.34341176
      4.50000000	      1.05709776	     -6.76176221	     16.15638722	      1.17993295	      0.95895430	     -0.31452316	     16.91965428	      6.16763269	    -10.92706136	    -23.92231474	      4.72859349	      0.44007113	     10.93425927	     -8.59532877	     13.65396130	    -53.02380073	     11.09238759	      4.52462894	     -0.89060375	      6.91250610	     -7.14560007
      4.51000000	      1.01541277	     -6.69584507	     16.03946352	      1.18483091	      0.95951450	     -0.31383409	     16.51487613	      6.27396252	    -10.80192790	    -23.70096072	      4.92378020	      0.35065603	     11.36802193	     -8.29216357	     13.72251575	    -52.12834422	     11.75743138	      4.72687210	     -0.91894823	      6.85523417	     -7.00631964
      4.52000000	      0.96253823	     -6.63951164	     15.92391130	      1.18957891	      0.96003022	     -0.31318572	     16.13356076	      6.37970861	    -10.67217097	    -23.48104323	      5.11625920	      0.29542909	     11.78938004	     -8.01518867	     13.77559568	    -51.12696142	     12.39335458	      4.92430819	     -0.93436062	      6.80801008	     -6.87135990
      4.53000000	      0.87783100	     -6.61317904	     15.83353844	      1.19413789	      0.96045090	     -0.31260257	     15.81047719	      6.49079261	    -10.56695029	    -23.27035987	      5.29869718	      0.26980694	     12.24389129	     -7.77217629	     13.84345027	    -50.05050822	     12.99989701	      4.96914087	     -0.90886990	      6.78773630	     -6.79519046
      4.54000000	      0.85141880	     -6.54188332	     15.68407918	      1.19865251	      0.96097480	     -0.31200778	     15.40041512	      6.58671230	    -10.39069057	    -23.03446825	      5.49994029	      0.25591214	     12.56374802	     -7.54537873	     13.80263611	    -48.86082883	     13.55367342	      5.17222414	     -0.96448723	      6.73716849	     -6.60760591
      4.55000000	      0.79341616	     -6.50395961	     15.56126479	      1.20298949	      0.96139281	     -0.31147929	     15.05181485	      6.68582865	    -10.26718858	    -22.81426549	      5.69932971	      0.26795397	     12.92530182	     -7.35657098	     13.77034530	    -47.63041590	     14.09638104	      5.24959441	     -0.97788126	      6.71716848	     -6.48893123
      4.56000000	      0.74139570	     -6.45940698	     15.42664665	      1.20720191	      0.96180769	     -0.31098311	     14.69630679	      6.77686722	    -10.12066223	    -22.58528848	      5.89967210	      0.31011891	     13.24570367	     -7.17305198	     13.72955469	    -46.34021382	     14.58952483	      5.29687950	     -1.00323574	      6.69351407	     -6.35361224
      4.57000000	      0.68434208	     -6.41471323	     15.28064347	      1.21129623	      0.96218960	     -0.31051854	     14.35369340	      6.85858600	     -9.98066469	    -22.36000071	      6.10214556	      0.37271407	     13.54144410	     -6.99530498	     13.68207657	    -45.00815367	     15.04561879	      5.32300942	     -1.02619074	      6.66916393	     -6.21759699
